<svg width="2" height="7" viewBox="0 0 2 7" fill="none" xmlns="http://www.w3.org/2000/svg">
<path d="M1.64205 0.181818L1.56818 4.3267H0.78125L0.707386 0.181818H1.64205ZM1.17614 6.05398C1.01894 6.05398 0.88447 5.99905 0.772727 5.8892C0.660985 5.77746 0.606061 5.64299 0.607955 5.4858C0.606061 5.33049 0.660985 5.19792 0.772727 5.08807C0.88447 4.97633 1.01894 4.92045 1.17614 4.92045C1.32955 4.92045 1.46212 4.97633 1.57386 5.08807C1.68561 5.19792 1.74242 5.33049 1.74432 5.4858C1.74242 5.58996 1.71496 5.68561 1.66193 5.77273C1.6108 5.85795 1.54261 5.92614 1.45739 5.97727C1.37216 6.02841 1.27841 6.05398 1.17614 6.05398Z" fill="white"/>
</svg>
